<mxfile host="app.diagrams.net" modified="2021-10-10T04:05:24.812Z" agent="5.0 (Windows NT 10.0; Win64; x64) AppleWebKit/537.36 (KHTML, like Gecko) Chrome/94.0.4606.71 Safari/537.36" etag="4IRmfObHFI4vb5wJe0Vs" version="15.5.0" type="github">
  <diagram id="T5oUtsXKc9qH6BQS0zv5" name="Page-1">
    <mxGraphModel dx="1038" dy="556" grid="1" gridSize="10" guides="1" tooltips="1" connect="1" arrows="1" fold="1" page="1" pageScale="1" pageWidth="827" pageHeight="1169" math="0" shadow="0">
      <root>
        <mxCell id="0" />
        <mxCell id="1" parent="0" />
        <mxCell id="_PeKxtwCLP6iYHrIWKKw-10" value="" style="edgeStyle=orthogonalEdgeStyle;rounded=0;orthogonalLoop=1;jettySize=auto;html=1;" edge="1" parent="1" source="_PeKxtwCLP6iYHrIWKKw-1" target="_PeKxtwCLP6iYHrIWKKw-3">
          <mxGeometry relative="1" as="geometry" />
        </mxCell>
        <mxCell id="_PeKxtwCLP6iYHrIWKKw-1" value="요청 발생" style="rounded=0;whiteSpace=wrap;html=1;" vertex="1" parent="1">
          <mxGeometry x="200" y="20" width="120" height="50" as="geometry" />
        </mxCell>
        <mxCell id="_PeKxtwCLP6iYHrIWKKw-8" value="" style="edgeStyle=orthogonalEdgeStyle;rounded=0;orthogonalLoop=1;jettySize=auto;html=1;" edge="1" parent="1" source="_PeKxtwCLP6iYHrIWKKw-3" target="_PeKxtwCLP6iYHrIWKKw-7">
          <mxGeometry relative="1" as="geometry" />
        </mxCell>
        <mxCell id="_PeKxtwCLP6iYHrIWKKw-3" value="시간 확인" style="rhombus;whiteSpace=wrap;html=1;" vertex="1" parent="1">
          <mxGeometry x="180" y="120" width="160" height="80" as="geometry" />
        </mxCell>
        <mxCell id="_PeKxtwCLP6iYHrIWKKw-7" value="시간 이전 요청으로 실패" style="whiteSpace=wrap;html=1;" vertex="1" parent="1">
          <mxGeometry x="440" y="130" width="136" height="60" as="geometry" />
        </mxCell>
        <mxCell id="_PeKxtwCLP6iYHrIWKKw-27" value="" style="edgeStyle=orthogonalEdgeStyle;rounded=0;orthogonalLoop=1;jettySize=auto;html=1;" edge="1" parent="1" source="_PeKxtwCLP6iYHrIWKKw-15" target="_PeKxtwCLP6iYHrIWKKw-23">
          <mxGeometry relative="1" as="geometry" />
        </mxCell>
        <mxCell id="_PeKxtwCLP6iYHrIWKKw-28" value="" style="edgeStyle=orthogonalEdgeStyle;rounded=0;orthogonalLoop=1;jettySize=auto;html=1;" edge="1" parent="1" source="_PeKxtwCLP6iYHrIWKKw-15" target="_PeKxtwCLP6iYHrIWKKw-24">
          <mxGeometry relative="1" as="geometry" />
        </mxCell>
        <mxCell id="_PeKxtwCLP6iYHrIWKKw-15" value="남은 수량확인" style="rhombus;whiteSpace=wrap;html=1;" vertex="1" parent="1">
          <mxGeometry x="180" y="230" width="160" height="80" as="geometry" />
        </mxCell>
        <mxCell id="_PeKxtwCLP6iYHrIWKKw-26" value="" style="edgeStyle=orthogonalEdgeStyle;rounded=0;orthogonalLoop=1;jettySize=auto;html=1;" edge="1" parent="1" source="_PeKxtwCLP6iYHrIWKKw-21" target="_PeKxtwCLP6iYHrIWKKw-15">
          <mxGeometry relative="1" as="geometry" />
        </mxCell>
        <mxCell id="_PeKxtwCLP6iYHrIWKKw-21" value="시간 확인" style="rhombus;whiteSpace=wrap;html=1;" vertex="1" parent="1">
          <mxGeometry x="180" y="120" width="160" height="80" as="geometry" />
        </mxCell>
        <mxCell id="_PeKxtwCLP6iYHrIWKKw-22" value="" style="edgeStyle=orthogonalEdgeStyle;rounded=0;orthogonalLoop=1;jettySize=auto;html=1;" edge="1" source="_PeKxtwCLP6iYHrIWKKw-21" parent="1">
          <mxGeometry relative="1" as="geometry">
            <mxPoint x="440" y="160" as="targetPoint" />
          </mxGeometry>
        </mxCell>
        <mxCell id="_PeKxtwCLP6iYHrIWKKw-23" value="수량 부족으로 실패" style="whiteSpace=wrap;html=1;" vertex="1" parent="1">
          <mxGeometry x="450" y="240" width="120" height="60" as="geometry" />
        </mxCell>
        <mxCell id="_PeKxtwCLP6iYHrIWKKw-34" value="" style="edgeStyle=orthogonalEdgeStyle;rounded=0;orthogonalLoop=1;jettySize=auto;html=1;" edge="1" parent="1" source="_PeKxtwCLP6iYHrIWKKw-24" target="_PeKxtwCLP6iYHrIWKKw-29">
          <mxGeometry relative="1" as="geometry" />
        </mxCell>
        <mxCell id="_PeKxtwCLP6iYHrIWKKw-41" value="" style="edgeStyle=orthogonalEdgeStyle;rounded=0;orthogonalLoop=1;jettySize=auto;html=1;" edge="1" parent="1" source="_PeKxtwCLP6iYHrIWKKw-24" target="_PeKxtwCLP6iYHrIWKKw-40">
          <mxGeometry relative="1" as="geometry" />
        </mxCell>
        <mxCell id="_PeKxtwCLP6iYHrIWKKw-24" value="중복참여 확인" style="rhombus;whiteSpace=wrap;html=1;" vertex="1" parent="1">
          <mxGeometry x="180" y="350" width="160" height="80" as="geometry" />
        </mxCell>
        <mxCell id="_PeKxtwCLP6iYHrIWKKw-29" value="중복 참여로 실패" style="whiteSpace=wrap;html=1;" vertex="1" parent="1">
          <mxGeometry x="200" y="470" width="120" height="60" as="geometry" />
        </mxCell>
        <mxCell id="_PeKxtwCLP6iYHrIWKKw-30" value="NO" style="text;strokeColor=none;fillColor=none;html=1;fontSize=24;fontStyle=1;verticalAlign=middle;align=center;" vertex="1" parent="1">
          <mxGeometry x="350" y="130" width="50" height="10" as="geometry" />
        </mxCell>
        <mxCell id="_PeKxtwCLP6iYHrIWKKw-31" value="YES" style="text;strokeColor=none;fillColor=none;html=1;fontSize=24;fontStyle=1;verticalAlign=middle;align=center;" vertex="1" parent="1">
          <mxGeometry x="200" y="210" width="50" height="10" as="geometry" />
        </mxCell>
        <mxCell id="_PeKxtwCLP6iYHrIWKKw-33" value="YES" style="text;strokeColor=none;fillColor=none;html=1;fontSize=24;fontStyle=1;verticalAlign=middle;align=center;" vertex="1" parent="1">
          <mxGeometry x="200" y="310" width="50" height="40" as="geometry" />
        </mxCell>
        <mxCell id="_PeKxtwCLP6iYHrIWKKw-35" value="YES" style="text;strokeColor=none;fillColor=none;html=1;fontSize=24;fontStyle=1;verticalAlign=middle;align=center;" vertex="1" parent="1">
          <mxGeometry x="190" y="430" width="50" height="40" as="geometry" />
        </mxCell>
        <mxCell id="_PeKxtwCLP6iYHrIWKKw-38" value="NO" style="text;strokeColor=none;fillColor=none;html=1;fontSize=24;fontStyle=1;verticalAlign=middle;align=center;" vertex="1" parent="1">
          <mxGeometry x="350" y="240" width="50" height="10" as="geometry" />
        </mxCell>
        <mxCell id="_PeKxtwCLP6iYHrIWKKw-39" value="NO" style="text;strokeColor=none;fillColor=none;html=1;fontSize=24;fontStyle=1;verticalAlign=middle;align=center;" vertex="1" parent="1">
          <mxGeometry x="350" y="350" width="50" height="10" as="geometry" />
        </mxCell>
        <mxCell id="_PeKxtwCLP6iYHrIWKKw-40" value="쿠폰 발급, 남은쿠폰 차감, 참여자 기록" style="whiteSpace=wrap;html=1;" vertex="1" parent="1">
          <mxGeometry x="448" y="360" width="120" height="60" as="geometry" />
        </mxCell>
      </root>
    </mxGraphModel>
  </diagram>
</mxfile>
